<?xml version="1.0" standalone="no"?>
<!DOCTYPE svg PUBLIC "-//W3C//DTD SVG 20010904//EN"
 "http://www.w3.org/TR/2001/REC-SVG-20010904/DTD/svg10.dtd">
<svg version="1.0" xmlns="http://www.w3.org/2000/svg"
 width="640.000000pt" height="637.000000pt" viewBox="0 0 640.000000 637.000000"
 preserveAspectRatio="xMidYMid meet">

<g transform="translate(0.000000,637.000000) scale(0.100000,-0.100000)"
fill="#000000" stroke="none">
<path d="M3045 6353 c-877 -17 -1798 -183 -2646 -477 -286 -99 -379 -135 -379
-149 0 -7 38 -89 84 -184 l84 -171 153 62 c743 302 1481 469 2317 526 197 13
860 13 1067 0 838 -54 1677 -247 2383 -549 l92 -40 85 171 c47 94 85 177 85
184 0 34 -688 263 -1111 369 -557 141 -1215 235 -1739 250 -102 3 -223 6 -270
8 -47 1 -139 1 -205 0z"/>
<path d="M2410 5733 c-542 -41 -1180 -176 -1679 -358 -181 -65 -409 -160 -425
-175 -5 -5 12 -34 37 -68 110 -142 303 -306 493 -418 92 -54 304 -159 308
-152 1 2 7 29 14 61 51 260 236 360 727 397 77 5 202 10 277 10 l136 0 6 -27
c3 -16 57 -316 120 -668 110 -613 595 -3315 714 -3979 l57 -318 17 93 c72 398
868 4881 868 4890 0 16 399 5 573 -16 371 -44 534 -151 579 -381 6 -32 12 -60
14 -62 1 -2 53 21 116 50 130 63 266 143 375 224 144 107 369 342 347 364 -16
15 -244 109 -425 175 -503 183 -1116 314 -1659 355 l-145 11 -25 -28 c-22 -25
-566 -688 -617 -751 l-18 -23 -329 400 -329 401 -41 -2 c-22 -1 -61 -3 -86 -5z"/>
</g>
</svg>
